<svg width="24" height="24" viewBox="0 0 24 24" fill="none" xmlns="http://www.w3.org/2000/svg">
<path d="M20.9861 18.514C20.4202 17.9719 19.8694 17.4142 19.3344 16.8416C18.8849 16.3849 18.6142 16.0526 18.6142 16.0526L15.2309 14.437C16.5854 12.9008 17.333 10.9232 17.3334 8.87508C17.3334 4.21212 13.5392 0.416748 8.87502 0.416748C4.21085 0.416748 0.416687 4.21212 0.416687 8.87508C0.416687 13.538 4.21085 17.3334 8.87502 17.3334C11.0053 17.3334 12.9471 16.5359 14.437 15.2321L16.0525 18.6155C16.0525 18.6155 16.3848 18.8861 16.8416 19.3356C17.3092 19.7742 17.9242 20.3675 18.5139 20.9874L20.1548 22.6694L20.8846 23.45L23.4475 20.8871L22.6669 20.1573C22.209 19.7078 21.5976 19.1109 20.9861 18.514ZM8.87502 14.9167C5.54365 14.9167 2.83335 12.2065 2.83335 8.87508C2.83335 5.54371 5.54365 2.83341 8.87502 2.83341C12.2064 2.83341 14.9167 5.54371 14.9167 8.87508C14.9167 12.2065 12.2064 14.9167 8.87502 14.9167Z" fill="#FFF"/>
</svg>
